<?xml version="1.0" standalone="no"?>
<!DOCTYPE svg PUBLIC "-//W3C//DTD SVG 20010904//EN"
 "http://www.w3.org/TR/2001/REC-SVG-20010904/DTD/svg10.dtd">
<svg version="1.0" xmlns="http://www.w3.org/2000/svg"
 width="512.000000pt" height="512.000000pt" viewBox="0 0 512.000000 512.000000"
 preserveAspectRatio="xMidYMid meet">
<metadata>
Created by potrace 1.11, written by Peter Selinger 2001-2013
</metadata>
<g transform="translate(0.000000,512.000000) scale(0.100000,-0.100000)"
fill="#000000" stroke="none">
<path d="M0 2560 l0 -2560 2560 0 2560 0 0 2560 0 2560 -2560 0 -2560 0 0
-2560z m1855 1839 c307 -38 591 -203 778 -454 104 -140 185 -326 208 -479 21
-140 36 -153 153 -137 488 68 968 -188 1186 -633 278 -567 45 -1247 -524
-1526 -450 -221 -987 -123 -1332 242 -39 42 -89 102 -111 134 -90 133 -163
311 -184 448 -21 141 -34 152 -159 137 -567 -72 -1099 277 -1254 822 -224 781
430 1545 1239 1446z"/>
<path d="M1605 4154 c-375 -54 -664 -312 -761 -680 -13 -51 -18 -105 -18 -209
0 -104 5 -158 18 -209 97 -369 388 -627 760 -677 78 -10 163 -8 231 5 23 5
108 55 176 104 34 25 50 44 59 75 19 63 96 213 152 294 52 75 222 247 277 279
33 19 49 55 80 176 26 100 10 192 -60 337 -117 246 -316 410 -584 483 -68 18
-264 32 -330 22z"/>
<path d="M3045 3084 c-375 -54 -664 -312 -761 -680 -13 -51 -18 -105 -18 -209
0 -104 5 -158 18 -209 88 -333 329 -574 662 -662 97 -25 321 -25 418 0 333 88
574 329 662 662 13 51 18 105 18 209 0 104 -5 158 -18 209 -87 330 -324 569
-651 658 -68 18 -264 32 -330 22z"/>
</g>
</svg>
